<svg width="24" height="24" viewBox="0 0 24 24" fill="none" xmlns="http://www.w3.org/2000/svg">
<g id="Name=calendar-number">
<path id="Vector" d="M19.5 2.99999H18.75V2.27109C18.75 1.86749 18.4397 1.52109 18.0361 1.50093C17.9347 1.49604 17.8333 1.5118 17.7382 1.54724C17.6431 1.58267 17.5561 1.63706 17.4826 1.7071C17.4091 1.77713 17.3506 1.86136 17.3106 1.95468C17.2706 2.048 17.25 2.14847 17.25 2.24999V2.99999H6.75V2.27109C6.75 1.86749 6.43969 1.52109 6.03609 1.50093C5.93469 1.49604 5.83334 1.5118 5.7382 1.54724C5.64307 1.58267 5.55611 1.63706 5.48261 1.7071C5.40911 1.77713 5.3506 1.86136 5.31062 1.95468C5.27063 2.048 5.25001 2.14847 5.25 2.24999V2.99999H4.5C3.70435 2.99999 2.94129 3.31606 2.37868 3.87867C1.81607 4.44128 1.5 5.20434 1.5 5.99999V6.56249C1.5 6.61222 1.51975 6.65991 1.55492 6.69507C1.59008 6.73024 1.63777 6.74999 1.6875 6.74999H22.3125C22.3622 6.74999 22.4099 6.73024 22.4451 6.69507C22.4802 6.65991 22.5 6.61222 22.5 6.56249V5.99999C22.5 5.20434 22.1839 4.44128 21.6213 3.87867C21.0587 3.31606 20.2956 2.99999 19.5 2.99999ZM22.3125 8.24999H1.6875C1.63777 8.24999 1.59008 8.26975 1.55492 8.30491C1.51975 8.34007 1.5 8.38776 1.5 8.43749V19.5C1.5 20.2956 1.81607 21.0587 2.37868 21.6213C2.94129 22.1839 3.70435 22.5 4.5 22.5H19.5C20.2956 22.5 21.0587 22.1839 21.6213 21.6213C22.1839 21.0587 22.5 20.2956 22.5 19.5V8.43749C22.5 8.38776 22.4802 8.34007 22.4451 8.30491C22.4099 8.26975 22.3622 8.24999 22.3125 8.24999ZM11.2303 18.8016C10.6598 19.252 9.88266 19.5 9.04125 19.5C7.73484 19.5 6.76875 18.6487 6.33844 17.9203C6.23712 17.749 6.208 17.5444 6.25749 17.3517C6.30698 17.1589 6.43103 16.9937 6.60234 16.8923C6.77366 16.791 6.9782 16.7619 7.17099 16.8114C7.36377 16.8609 7.52899 16.9849 7.63031 17.1562C7.68094 17.2425 8.15297 18 9.04125 18C9.82219 18 10.7344 17.6583 10.7344 16.6959C10.7344 16.403 10.6772 15.9951 10.4062 15.7172C10.0059 15.3075 9.33984 15.1233 8.99484 15.1233C8.79593 15.1233 8.60517 15.0443 8.46451 14.9036C8.32386 14.7629 8.24484 14.5722 8.24484 14.3733C8.24484 14.1744 8.32386 13.9836 8.46451 13.8429C8.60517 13.7023 8.79593 13.6233 8.99484 13.6233C9.22219 13.6233 9.81094 13.5014 10.1798 13.1241C10.2796 13.0259 10.3584 12.9084 10.4114 12.7789C10.4643 12.6493 10.4903 12.5103 10.4878 12.3703C10.4878 11.2814 9.14578 11.25 8.99297 11.25C8.18016 11.25 7.87734 11.7473 7.86469 11.7684C7.81596 11.8558 7.75025 11.9325 7.67142 11.9941C7.5926 12.0557 7.50225 12.1009 7.40569 12.127C7.30914 12.1532 7.20833 12.1597 7.1092 12.1463C7.01007 12.1329 6.91462 12.0998 6.82847 12.049C6.74233 11.9981 6.66722 11.9306 6.60758 11.8503C6.54794 11.77 6.50496 11.6785 6.48118 11.5814C6.4574 11.4842 6.4533 11.3833 6.46912 11.2845C6.48493 11.1857 6.52035 11.0911 6.57328 11.0062C6.93141 10.3969 7.75547 9.74999 8.99297 9.74999C9.76359 9.74999 10.4817 9.97359 11.0147 10.3791C11.6423 10.8572 11.9878 11.5641 11.9878 12.3703C11.9899 12.7046 11.9258 13.0359 11.7992 13.3453C11.6725 13.6546 11.4859 13.9358 11.25 14.1726C11.1961 14.228 11.1394 14.2795 11.0817 14.3297C11.2225 14.4314 11.3546 14.5448 11.4764 14.6686C11.9714 15.1748 12.233 15.8756 12.233 16.6959C12.2344 17.5425 11.8777 18.2901 11.2303 18.8016ZM17.25 18.5625C17.25 18.7614 17.171 18.9522 17.0303 19.0928C16.8897 19.2335 16.6989 19.3125 16.5 19.3125C16.3011 19.3125 16.1103 19.2335 15.9697 19.0928C15.829 18.9522 15.75 18.7614 15.75 18.5625V12.0136L14.6948 12.7912C14.6156 12.8497 14.5255 12.892 14.4299 12.9157C14.3343 12.9394 14.2349 12.944 14.1375 12.9293C14.0401 12.9146 13.9465 12.8808 13.8622 12.83C13.7778 12.7791 13.7043 12.7121 13.6458 12.6328C13.5873 12.5535 13.545 12.4635 13.5213 12.3679C13.4976 12.2722 13.493 12.1729 13.5077 12.0755C13.5224 11.978 13.5562 11.8845 13.6071 11.8001C13.6579 11.7157 13.7249 11.6422 13.8042 11.5837L15.8395 10.0837C15.9684 9.98876 16.1243 9.93752 16.2844 9.93749H16.5C16.6989 9.93749 16.8897 10.0165 17.0303 10.1572C17.171 10.2978 17.25 10.4886 17.25 10.6875V18.5625Z" fill="#1A1F16"/>
</g>
</svg>
