<svg width="24" height="25" viewBox="0 0 24 25" fill="none" xmlns="http://www.w3.org/2000/svg">
<g id="Icon">
<path id="Vector" d="M13.5909 12.4183L18.0441 7.96519C18.2554 7.75422 18.3743 7.46793 18.3745 7.16931C18.3748 6.87069 18.2564 6.58419 18.0455 6.37285C17.8345 6.1615 17.5482 6.04262 17.2496 6.04236C16.951 6.0421 16.6645 6.16047 16.4531 6.37144L12 10.8246L7.54687 6.37144C7.33553 6.1601 7.04888 6.04137 6.75 6.04137C6.45111 6.04137 6.16447 6.1601 5.95312 6.37144C5.74178 6.58279 5.62305 6.86943 5.62305 7.16832C5.62305 7.4672 5.74178 7.75385 5.95312 7.96519L10.4062 12.4183L5.95312 16.8714C5.74178 17.0828 5.62305 17.3694 5.62305 17.6683C5.62305 17.9672 5.74178 18.2538 5.95312 18.4652C6.16447 18.6765 6.45111 18.7953 6.75 18.7953C7.04888 18.7953 7.33553 18.6765 7.54687 18.4652L12 14.0121L16.4531 18.4652C16.6645 18.6765 16.9511 18.7953 17.25 18.7953C17.5489 18.7953 17.8355 18.6765 18.0469 18.4652C18.2582 18.2538 18.3769 17.9672 18.3769 17.6683C18.3769 17.3694 18.2582 17.0828 18.0469 16.8714L13.5909 12.4183Z" fill="#1A1F16"/>
</g>
</svg>
