<svg width="24" height="24" viewBox="0 0 24 24" fill="none" xmlns="http://www.w3.org/2000/svg">
<g id="Name=gift">
<path id="Vector" d="M3.75 19.5C3.75 20.2956 4.06607 21.0587 4.62868 21.6213C5.19129 22.1839 5.95435 22.5 6.75 22.5H11.0625C11.1122 22.5 11.1599 22.4802 11.1951 22.4451C11.2302 22.4099 11.25 22.3622 11.25 22.3125V13.6875C11.25 13.6378 11.2302 13.5901 11.1951 13.5549C11.1599 13.5198 11.1122 13.5 11.0625 13.5H4.125C4.02554 13.5 3.93016 13.5395 3.85984 13.6098C3.78951 13.6802 3.75 13.7755 3.75 13.875V19.5ZM11.25 11.8125V6.75H12.75V11.8125C12.75 11.8622 12.7698 11.9099 12.8049 11.9451C12.8401 11.9802 12.8878 12 12.9375 12H19.5C19.7555 12 20.0091 11.9564 20.25 11.8711C20.6883 11.7155 21.0677 11.4281 21.3363 11.0484C21.6048 10.6686 21.7493 10.2151 21.75 9.75V9C21.75 8.40326 21.5129 7.83096 21.091 7.409C20.669 6.98705 20.0967 6.75 19.5 6.75H17.5997C17.5834 6.74973 17.5674 6.74521 17.5533 6.73688C17.5393 6.72854 17.5277 6.71669 17.5196 6.70248C17.5116 6.68827 17.5074 6.6722 17.5074 6.65587C17.5075 6.63954 17.5118 6.62351 17.52 6.60937C17.954 5.87666 18.0949 5.00697 17.9146 4.1747C17.7343 3.34242 17.246 2.60908 16.5476 2.12173C15.8492 1.63438 14.9925 1.42904 14.1491 1.54689C13.3057 1.66474 12.538 2.09707 12 2.75718C11.462 2.09707 10.6943 1.66474 9.85092 1.54689C9.00752 1.42904 8.15075 1.63438 7.4524 2.12173C6.75405 2.60908 6.26574 3.34242 6.0854 4.1747C5.90506 5.00697 6.04602 5.87666 6.48 6.60937C6.48817 6.62351 6.4925 6.63954 6.49257 6.65587C6.49263 6.6722 6.48843 6.68827 6.48038 6.70248C6.47233 6.71669 6.46071 6.72854 6.44666 6.73688C6.43262 6.74521 6.41664 6.74973 6.40031 6.75H4.5C3.90326 6.75 3.33097 6.98705 2.90901 7.409C2.48705 7.83096 2.25 8.40326 2.25 9V9.75C2.25066 10.2151 2.39517 10.6686 2.66372 11.0484C2.93227 11.4281 3.3117 11.7155 3.75 11.8711C3.99085 11.9564 4.24449 12 4.5 12H11.0625C11.1122 12 11.1599 11.9802 11.1951 11.9451C11.2302 11.9099 11.25 11.8622 11.25 11.8125ZM12.75 4.87499C12.75 4.50415 12.86 4.14164 13.066 3.8333C13.272 3.52496 13.5649 3.28463 13.9075 3.14272C14.2501 3.00081 14.6271 2.96367 14.9908 3.03602C15.3545 3.10837 15.6886 3.28695 15.9508 3.54917C16.213 3.81139 16.3916 4.14549 16.464 4.5092C16.5363 4.87292 16.4992 5.24991 16.3573 5.59253C16.2154 5.93514 15.975 6.22797 15.6667 6.434C15.3584 6.64003 14.9958 6.75 14.625 6.75H12.75V4.87499ZM9.24094 3.00468C9.49781 2.98627 9.75572 3.02097 9.9986 3.10662C10.2415 3.19227 10.4641 3.32704 10.6526 3.50252C10.8411 3.67799 10.9914 3.89042 11.0942 4.12655C11.197 4.36269 11.25 4.61746 11.25 4.87499V6.75H9.375C8.89017 6.74875 8.42466 6.55975 8.07619 6.22266C7.72771 5.88557 7.52336 5.42661 7.50601 4.94208C7.48867 4.45756 7.65968 3.98515 7.98316 3.62401C8.30664 3.26286 8.75744 3.04106 9.24094 3.00515V3.00468ZM12.9375 22.5H17.25C18.0456 22.5 18.8087 22.1839 19.3713 21.6213C19.9339 21.0587 20.25 20.2956 20.25 19.5V13.875C20.25 13.7755 20.2105 13.6802 20.1402 13.6098C20.0698 13.5395 19.9745 13.5 19.875 13.5H12.9375C12.8878 13.5 12.8401 13.5198 12.8049 13.5549C12.7698 13.5901 12.75 13.6378 12.75 13.6875V22.3125C12.75 22.3622 12.7698 22.4099 12.8049 22.4451C12.8401 22.4802 12.8878 22.5 12.9375 22.5Z" fill="#1A1F16"/>
</g>
</svg>
