<svg width="24" height="24" viewBox="0 0 24 24" fill="none" xmlns="http://www.w3.org/2000/svg">
<g id="Name=save">
<path id="Vector" d="M21.8409 5.61375L18.3862 2.15906C18.1778 1.94946 17.9299 1.78328 17.6568 1.67016C17.3837 1.55703 17.0909 1.49919 16.7953 1.5H4.5C3.70435 1.5 2.94129 1.81607 2.37868 2.37868C1.81607 2.94129 1.5 3.70435 1.5 4.5V19.5C1.5 20.2957 1.81607 21.0587 2.37868 21.6213C2.94129 22.1839 3.70435 22.5 4.5 22.5H19.5C20.2956 22.5 21.0587 22.1839 21.6213 21.6213C22.1839 21.0587 22.5 20.2957 22.5 19.5V7.20469C22.5008 6.9091 22.443 6.61628 22.3298 6.3432C22.2167 6.07011 22.0505 5.82218 21.8409 5.61375ZM5.625 5.25H13.875C13.9745 5.25 14.0698 5.28951 14.1402 5.35984C14.2105 5.43016 14.25 5.52555 14.25 5.625V7.875C14.25 7.97446 14.2105 8.06984 14.1402 8.14017C14.0698 8.21049 13.9745 8.25 13.875 8.25H5.625C5.52554 8.25 5.43016 8.21049 5.35983 8.14017C5.28951 8.06984 5.25 7.97446 5.25 7.875V5.625C5.25 5.52555 5.28951 5.43016 5.35983 5.35984C5.43016 5.28951 5.52554 5.25 5.625 5.25ZM12.1758 20.2458C11.4199 20.2813 10.6711 20.0873 10.0275 19.6893C9.38395 19.2913 8.87586 18.7079 8.56997 18.0158C8.26409 17.3238 8.17473 16.5553 8.31363 15.8115C8.45254 15.0677 8.81321 14.3833 9.34826 13.8483C9.8833 13.3132 10.5677 12.9525 11.3115 12.8136C12.0553 12.6747 12.8238 12.7641 13.5158 13.07C14.2079 13.3759 14.7913 13.884 15.1893 14.5275C15.5873 15.1711 15.7813 15.9199 15.7458 16.6758C15.7014 17.6083 15.311 18.4907 14.6509 19.1509C13.9907 19.811 13.1083 20.2014 12.1758 20.2458Z" fill="#1A1F16"/>
<path id="Vector_2" d="M12 18.75C13.2426 18.75 14.25 17.7426 14.25 16.5C14.25 15.2574 13.2426 14.25 12 14.25C10.7574 14.25 9.75 15.2574 9.75 16.5C9.75 17.7426 10.7574 18.75 12 18.75Z" fill="#1A1F16"/>
</g>
</svg>
