<svg width="24" height="24" viewBox="0 0 24 24" fill="none" xmlns="http://www.w3.org/2000/svg">
<g id="Name=star">
<path id="Vector" d="M18.4687 22.5C18.3109 22.5006 18.1568 22.4514 18.0286 22.3594L12 17.9887L5.97139 22.3594C5.84259 22.4528 5.68742 22.5028 5.52831 22.5022C5.36921 22.5017 5.21441 22.4505 5.08629 22.3561C4.95818 22.2618 4.86339 22.1291 4.81563 21.9774C4.76787 21.8256 4.76961 21.6626 4.82061 21.5119L7.17185 14.5477L1.07811 10.3687C0.946112 10.2783 0.846491 10.1481 0.793797 9.997C0.741103 9.84594 0.7381 9.68198 0.785225 9.52908C0.83235 9.37619 0.927135 9.24237 1.05573 9.14718C1.18432 9.05199 1.33999 9.00042 1.49998 9H9.01779L11.2865 2.01797C11.3354 1.86723 11.4308 1.73584 11.5589 1.64266C11.6871 1.54947 11.8415 1.49928 12 1.49928C12.1584 1.49928 12.3128 1.54947 12.441 1.64266C12.5692 1.73584 12.6645 1.86723 12.7134 2.01797L14.9822 9.00234H22.5C22.6602 9.00226 22.8162 9.05348 22.9452 9.14848C23.0741 9.24349 23.1693 9.3773 23.2167 9.53031C23.2641 9.68332 23.2613 9.8475 23.2087 9.9988C23.156 10.1501 23.0563 10.2806 22.9242 10.3711L16.8281 14.5477L19.1779 21.51C19.216 21.6227 19.2267 21.7429 19.2092 21.8606C19.1916 21.9782 19.1464 22.09 19.0771 22.1868C19.0078 22.2835 18.9165 22.3623 18.8107 22.4168C18.7049 22.4713 18.5877 22.4998 18.4687 22.5Z" fill="#1A1F16"/>
</g>
</svg>
